<svg xmlns="http://www.w3.org/2000/svg" xmlns:xlink="http://www.w3.org/1999/xlink" xmlns:svgjs="http://svgjs.dev/svgjs" width="1000" height="984"><svg viewBox="0 0 251 247" data-background-color="#ffffff" height="984" width="1000" xmlns="http://www.w3.org/2000/svg" xmlns:xlink="http://www.w3.org/1999/xlink" transform="translate(.62 .398)"><svg height="247.2" width="251.312" id="tight-bounds" transform="translate(-.156 -.1)"><svg viewBox="0 0 395.52 389.049" height="247.2" width="251.312"><svg height="125.083" width="395.52" transform="translate(0 263.966)"><g id="textblocktransform"><svg height="125.083" width="395.52" id="textblock"><svg height="83.279" width="395.52"><svg width="395.52" viewBox="1.6 -35.5 171.69 36.7" height="83.279" data-palette-color="#000000"><path d="M6.75.35H5.6q0-4.15 2.35-15.15t2.63-13.18q.27-2.17.32-3.27-4.7.1-7.5 1.45-1.45-1.65-1.8-4.85 2.45-.85 8.4-.85l15.75.5q1.15 0 3.65-.1.2 1.6.2 2.7 0 2.35-2.95 2.35-.9 0-2.82-.3-1.93-.3-3.38-.35-.15 1.6-2.57 13Q15.45-6.3 15.45-.95q-2.2 1.3-8.7 1.3zM38.3-.95Q35.35.35 31.1.35q-1.45 0-2.6-.25 0-3.3 2.82-14.88 2.83-11.57 2.83-14.57 0-1.2-1.8-3.2l-.55-.65.15-1.1q6.8-1.2 15.1-1.2 5 0 7.9 1.92 2.9 1.93 2.9 5.6 0 3.68-2 6.7-2 3.03-5.7 4.73 1.65 5.6 3.15 8.75 1.5 3.15 2.45 3.15.8 0 2.5-.6l.6-.2 1.2 2.7Q55.65.6 50.77.6 45.9.6 44.4-4.3q-1.3-4.3-2.1-10.65h-1.75q-2.25 10.5-2.25 14zm4.3-18.35q1.6 0 2.77-1 1.18-1 1.78-2.6 1.1-3.15 1.1-6.1 0-2.95-2.65-2.95-.8 0-1.6.15-.05 1.55-2.45 12.4.35.1 1.05.1zM63.75-.65Q63.4.45 61.42.45 59.45.45 57.5-.9q1.55-4.2 6.17-13.98 4.63-9.77 6.17-14.57.16-.6.16-1.03 0-.42-.35-1.17t-.75-1.2l-.35-.45.2-1q4.45-1.2 10.55-1.2l3.85.2q.5.45 1 2.35.5 1.9.65 5.7.15 3.8.2 14.25.05 8.05 2 8.05.5 0 2.15-.5l.5-.15 1.05 2.85Q88.65-1.2 85.9-.3q-2.75.9-4.95.9-3.2 0-4.38-1.98-1.17-1.97-1.17-5.1 0-3.12.05-4.32-.95-.2-3.7-.2t-4.75.55q-1.85 4.95-3.25 9.8zM68.8-15h6.85q.25-4.35.25-8.75t-.5-6.4q-.5 0-.7.1Q73.59-26.7 68.8-15zm25.49 8.6q0-2 .88-8.2.87-6.2.87-9.6 0-3.4-.3-4.6-.5-1.7-2-3.9l-.5-.65.2-1q4.8-1 12.2-1 .85 1.7.85 4.15 0 4.8-1.25 12.6t-1.25 9.15q0 2.85 1.3 2.85 1.5 0 3.8-2.58 2.3-2.57 4.18-6.5 1.87-3.92 2.12-7.22l-5.35-3.6q.4-2.9 1.45-5.08 1.05-2.17 2-3.02.95-.85 1.5-.85 3.2 0 5 1.87 1.8 1.88 1.8 4.38 0 3.75-1.92 8.9-1.93 5.15-4.88 9.77-2.95 4.63-6.9 7.88T100.87.6q-3.28 0-4.93-1.95T94.29-6.4zm38.9 7.05q-6.3 0-9.7-4.05-1.85-2.2-1.85-5.35 0-4.25 3-6.98 3-2.72 7.1-3.17-6.3-1.7-6.3-7.25 0-4.3 3.7-6.83 3.7-2.52 8.42-2.52 4.73 0 7.88 1.95 3.15 1.95 3.15 5.15 0 1.85-1 3.5l-.35.55q-2.05 0-4.4-.63-2.35-.62-3.55-1.62l.5-5.1q-.75-.35-1.5-.35-1.55 0-2.37 1.65-.83 1.65-.83 3.85t.47 3.5q.48 1.3 1.5 1.97 1.03.68 1.81.95.77.28 2.17.58l-.4 2.9q-3.45 0-6.35 1.95-2.9 1.95-2.9 5.25 0 2.35 1.5 3.42 1.5 1.08 3.58 1.08 2.07 0 4.37-1.05 2.3-1.05 3.95-2.65l2.25 2.25q-2.15 2.95-5.95 5-3.8 2.05-7.9 2.05zm33.1.55q-2.1 0-6.13-2.2-4.02-2.2-4.67-2.35-3 3.95-5.6 3.95-.7 0-2.1-1.95-1.4-1.95-1.4-3.65 0-.75 1.55-1.88 1.55-1.12 3.55-1.57 1.35-3.15 2.67-9.55 1.33-6.4 1.33-11.25 0-.8-.53-1.8-.52-1-1.02-1.6l-.55-.6.15-1q2.75-1.25 11.4-1.25.8 1.25.8 4.25t-2.65 10.4q-2.65 7.4-5.3 12.85 5 1.3 9.55 1.3 1.05 0 1.72-.5.68-.5 1.48-2.1l2.75.95q-.8 4.75-2.43 7.15-1.62 2.4-4.57 2.4z" data-fill-palette-color="primary" id="text-0"/></svg></svg><svg height="22.143" width="244.431" transform="translate(75.544 102.94)"><svg width="244.431" viewBox="3.66 -34.55 418.77 37.94" height="22.143" data-palette-color="#000000"><path d="M3.69 0v-3.91h6.56v-22.58H3.66v-3.91h35.92v8.79h-5.5v-4.88H15.99v9.86h14.8v3.06h-14.8v9.66H26.1V0H3.69zm31.86-18.97v-.93h5.78v-9.27h.98v10.2h-6.76zm-17.8.88v-6.69h15.36v.93H18.75v5.76h-1zM5.13-23.85v-.93h4.1v.93h-4.1zM17.75-5.37v-6.5h14.82v-3.54h.97v4.47H18.73v5.57h-.98zM5.13 1.71h22.73v-4.25h.97v5.18H5.13v-.93zm42.21-13.04q0-2.59.95-4.93t2.85-4.13q1.91-1.78 4.74-2.84 2.83-1.06 6.57-1.06 3.51 0 6.27.94t4.69 2.72q1.93 1.78 2.94 4.36 1.02 2.57 1.02 5.87H52.68q.22 1.76 1.14 3.12.91 1.37 2.33 2.31t3.21 1.43q1.79.49 3.75.49 1.58 0 3.23-.26 1.65-.25 3.12-.69 1.46-.44 2.61-.99t1.76-1.14h.92l2.3 2.49q-2.52 2.15-6.12 3.26Q67.33.73 62.99.73q-3.79 0-6.71-.93-2.91-.92-4.9-2.56-1.99-1.63-3.02-3.83-1.02-2.2-1.02-4.74zm7.69 2.64h24q.04-.37.07-.79.02-.43.02-.92 0-2.08-.42-3.97-.43-1.89-1.25-3.51-.82-1.63-2.01-2.97-1.2-1.34-2.71-2.29 1.61.63 2.96 1.74 1.36 1.11 2.33 2.7.98 1.59 1.53 3.66.55 2.08.55 4.64 0 .19-.01.49-.01.29-.04.66-.02.36-.06.74-.04.38-.09.75H56.83q.47.78 1.71 1.6 1.25.81 3.23 1.37-1.23 0-2.29-.29t-1.93-.8q-.86-.52-1.51-1.24t-1.01-1.57zm-2.2-4.76h18.9q-.39-1.69-1.21-3.01-.82-1.31-2.02-2.2-1.19-.9-2.73-1.37-1.54-.48-3.37-.48-1.98 0-3.6.53-1.62.52-2.85 1.46-1.22.94-2.01 2.24-.79 1.29-1.11 2.83zm3.34-1.05h-1.12q.9-2 2.85-3.15 1.94-1.15 4.5-1.15 1.05 0 2.04.17t1.83.53q.84.35 1.48.86.63.52 1 1.18-1.39-.93-2.98-1.37-1.59-.44-3.42-.44-2.12 0-3.73.88-1.62.88-2.45 2.49zM50.29-1.07Q52.66.61 55.8 1.54q3.13.93 7.19.93 3.95 0 7.41-.91 3.45-.9 6.23-2.76l.66.71q-3.15 2.13-6.63 3-3.47.88-7.28.88-4.96 0-8.22-1.19Q51.9 1 50.29-1.07zm35.18-10.26q0-2.59.95-4.93t2.86-4.13q1.9-1.78 4.73-2.84 2.84-1.06 6.57-1.06 3.52 0 6.28.94 2.75.94 4.68 2.72 1.93 1.78 2.94 4.36 1.02 2.57 1.02 5.87H90.82q.22 1.76 1.13 3.12.92 1.37 2.33 2.31 1.42.94 3.21 1.43 1.8.49 3.75.49 1.59 0 3.23-.26 1.65-.25 3.12-.69 1.46-.44 2.61-.99t1.76-1.14h.93l2.29 2.49q-2.51 2.15-6.12 3.26-3.6 1.11-7.94 1.11-3.79 0-6.7-.93-2.92-.92-4.91-2.56-1.99-1.63-3.02-3.83-1.02-2.2-1.02-4.74zm7.69 2.64h24q.05-.37.07-.79.03-.43.03-.92 0-2.08-.43-3.97-.43-1.89-1.25-3.51-.81-1.63-2.01-2.97-1.2-1.34-2.71-2.29 1.61.63 2.97 1.74 1.35 1.11 2.33 2.7.97 1.59 1.52 3.66.55 2.08.55 4.64 0 .19-.01.49-.01.29-.04.66-.02.36-.06.74-.03.38-.08.75H94.97q.46.78 1.7 1.6 1.25.81 3.23 1.37-1.22 0-2.29-.29-1.06-.29-1.92-.8-.87-.52-1.52-1.24-.64-.72-1.01-1.57zm-2.2-4.76h18.9q-.39-1.69-1.21-3.01-.82-1.31-2.01-2.2-1.2-.9-2.74-1.37-1.54-.48-3.37-.48-1.98 0-3.6.53-1.62.52-2.84 1.46-1.22.94-2.02 2.24-.79 1.29-1.11 2.83zm3.35-1.05h-1.13q.91-2 2.85-3.15t4.5-1.15q1.05 0 2.04.17t1.83.53q.84.35 1.48.86.63.52 1 1.18-1.39-.93-2.98-1.37-1.59-.44-3.42-.44-2.12 0-3.73.88-1.61.88-2.44 2.49zM88.42-1.07q2.37 1.68 5.51 2.61 3.14.93 7.19.93 3.95 0 7.41-.91 3.45-.9 6.24-2.76l.65.71q-3.14 2.13-6.62 3-3.48.88-7.29.88-4.96 0-8.22-1.19-3.26-1.2-4.87-3.27zM123.72 0v-3.66h5.37V-30.4h-5.37v-3.66h10.62v30.4h5.37V0h-15.99zm12.33-5.13v-27.68h.98v27.68h-.98zm-10.86-22.63v-.93h2.88v.93h-2.88zm0 29.47h16.28v-4h.98v4.93h-17.26v-.93zm42.13-10.45v-10.67h-5.37v-4.15h5.37v-4.93l5.25-2.2v7.13h12.13v4.15h-12.13v11.65q0 1.83 1.15 2.72 1.15.89 3.12.89h6.89V0h-6.89q-1.97 0-3.71-.43-1.73-.42-3.03-1.44-1.29-1.01-2.03-2.68-.75-1.68-.75-4.19zm7.01-16.28v-4.33l.97-.44v4.77h-.97zm-.05 18.26v-11.21h12.18v-4.49h.98v5.42h-12.18v11.25q-.83-.22-.98-.97zm-10.86-10.01v-.93h2.92v.93h-2.92zm3.76 14.67q.78 1.1 1.74 1.83T171.08.9q1.2.44 2.61.63 1.42.18 3.1.18h8.7v-4.76h.97v5.69h-9.79q-1.88 0-3.42-.25-1.53-.24-2.72-.79-1.18-.55-2.02-1.47-.85-.91-1.33-2.23zm25.6 2.1v-3.66h5.37v-26.49h-5.37v-3.91h10.62v14.19q.76-.93 1.82-1.74 1.06-.8 2.38-1.4 1.32-.6 2.86-.94 1.54-.34 3.22-.34 2.54 0 4.62.72 2.07.72 3.54 2.22 1.46 1.5 2.25 3.78.8 2.29.8 5.41v8.5h5.37V0h-14.77v-3.66h4.15v-6.42q0-1.98-.18-3.53-.19-1.55-.53-2.43-.44-1.12-1.11-1.9-.67-.79-1.51-1.27-.85-.49-1.85-.71-1-.22-2.12-.22-1.2 0-2.48.44t-2.49 1.23q-1.21.79-2.25 1.87-1.03 1.07-1.72 2.32v10.62h4.15V0h-14.77zm12.33-23.24v-9.57h.98v8.93q-.22.1-.5.27t-.48.37zm-10.86-4.27v-.93h2.88v.93h-2.88zm32.4 22.38v-6.86q0-2.15-.33-3.99-.33-1.84-.99-3.32-.66-1.48-1.63-2.55-.96-1.07-2.23-1.71 1.66.42 2.83 1.4 1.17.99 1.91 2.51.73 1.51 1.07 3.49.34 1.98.34 4.34v6.69h-.97zm-21.49 0v-8.54q.61-1.08 1.45-1.96.85-.87 1.82-1.5.98-.62 2.04-.96 1.06-.34 2.14-.34 1.68 0 2.77.63 1.08.64 1.57 1.61-.75-.56-1.8-.94-1.05-.37-2.59-.37-.95 0-1.93.34t-1.83.9q-.86.56-1.55 1.29-.7.74-1.11 1.52v8.32h-.98zm11.79 6.84h15.07v-4h.97v4.93h-16.04v-.93zm-22.7 0h15.06v-4h.98v4.93h-16.04v-.93zm42.77-13.04q0-2.59.95-4.93t2.86-4.13q1.9-1.78 4.73-2.84 2.84-1.06 6.57-1.06 3.52 0 6.28.94 2.75.94 4.68 2.72 1.93 1.78 2.94 4.36 1.02 2.57 1.02 5.87h-24.68q.22 1.76 1.13 3.12.92 1.37 2.33 2.31 1.42.94 3.21 1.43 1.8.49 3.75.49 1.59 0 3.23-.26 1.65-.25 3.12-.69 1.46-.44 2.61-.99t1.76-1.14h.93l2.29 2.49q-2.51 2.15-6.12 3.26-3.6 1.11-7.94 1.11-3.79 0-6.7-.93-2.92-.92-4.91-2.56-1.99-1.63-3.02-3.83-1.02-2.2-1.02-4.74zm7.69 2.64h24q.05-.37.07-.79.03-.43.03-.92 0-2.08-.43-3.97-.43-1.89-1.25-3.51-.81-1.63-2.01-2.97-1.2-1.34-2.71-2.29 1.61.63 2.97 1.74 1.35 1.11 2.33 2.7.97 1.59 1.52 3.66.55 2.08.55 4.64 0 .19-.01.49-.01.29-.04.66-.02.36-.06.74-.03.38-.08.75h-23.07q.46.78 1.7 1.6 1.25.81 3.23 1.37-1.22 0-2.29-.29-1.06-.29-1.92-.8-.87-.52-1.52-1.24-.64-.72-1.01-1.57zm-2.2-4.76h18.9q-.39-1.69-1.21-3.01-.82-1.31-2.01-2.2-1.2-.9-2.74-1.37-1.54-.48-3.37-.48-1.98 0-3.6.53-1.62.52-2.84 1.46-1.22.94-2.02 2.24-.79 1.29-1.11 2.83zm3.35-1.05h-1.13q.91-2 2.85-3.15t4.5-1.15q1.05 0 2.04.17t1.83.53q.84.35 1.48.86.63.52 1 1.18-1.39-.93-2.98-1.37-1.59-.44-3.42-.44-2.12 0-3.73.88-1.61.88-2.44 2.49zm-5.89 13.43q2.37 1.68 5.51 2.61 3.14.93 7.19.93 3.95 0 7.41-.91 3.45-.9 6.24-2.76l.65.71q-3.14 2.13-6.62 3-3.48.88-7.29.88-4.96 0-8.22-1.19-3.26-1.2-4.87-3.27zM292.12 0v-3.91h6.34v-22.58h-6.76v-3.91h19.14v3.91h-6.83v22.58h16.96v-7.08h5.5V0h-34.35zm13.64-5.37v-19.17h6.82v-4.63h.97v5.56h-6.81v18.24h-.98zm-12.59-18.24v-.93h4.27v.93h-4.27zm.41 25.32h34.64V-9.62h.98V2.64h-35.62v-.93zm46.53-31.35v-4.88h5.98v4.88h-5.98zm1.47 2.64v-.93h6.27v-5.22h.98V-27h-7.25zm-6.6 27v-3.66h6.6l-.74-15.75h-5.86v-4.15h11.11v19.9h5.62V0h-16.73zm12.82-5.13v-17.18h.98v17.18h-.98zm-11.35-11.64v-.93h3.37v.93h-3.37zm0 18.48h17.02v-4h.97v4.93h-17.99v-.93zM358.47 0v-3.66h5.37v-13.06h-5.37v-3.67h5.37v-3.54q0-2.34.77-4.29.77-1.96 2.18-3.36 1.42-1.4 3.45-2.18 2.02-.79 4.56-.79 2.22 0 3.93.55t2.92 1.52q1.21.96 1.94 2.28.73 1.32 1.03 2.88h-5.03q-.22-.51-.56-1.01-.35-.5-.91-.91-.56-.4-1.37-.66-.8-.25-1.95-.25-1.1 0-2.13.35-1.04.36-1.84 1.08-.79.72-1.27 1.82-.47 1.09-.47 2.56v3.95h11.3v3.67h-11.3v13.06h8.3V0h-18.92zm22.58-24.68v-.93h5.32v-.32q0-1.15-.24-2.21t-.66-2.01q-.41-.95-.96-1.76-.55-.8-1.16-1.44.97.49 1.73 1.37.76.88 1.26 1.89.5 1.01.75 2.01.26 1 .26 1.74v1.66h-6.3zm-10.25 2.59v-.54q0-1.74.34-2.88.34-1.15.93-1.82.58-.67 1.35-.94.77-.27 1.63-.27.61 0 1.11.15.5.14.86.36.37.22.61.48.25.26.37.5-.9-.46-1.76-.55-.85-.09-1.24-.09-.61 0-1.19.2-.57.2-1.02.74-.45.55-.73 1.54-.29.99-.29 2.6v.52h-.97zm0 16.96v-9.88h11.35v-4.01h.98v4.93h-11.36v8.96h-.97zm-10.87-8.96v-.92h2.93v.92h-2.93zm0 15.8h19.22v-4h.97v4.93h-20.19v-.93zm29.74-13.04q0-2.59.95-4.93t2.86-4.13q1.9-1.78 4.73-2.84 2.83-1.06 6.57-1.06 3.52 0 6.27.94 2.76.94 4.69 2.72 1.93 1.78 2.94 4.36 1.02 2.57 1.02 5.87h-24.69q.22 1.76 1.14 3.12.91 1.37 2.33 2.31t3.21 1.43q1.8.49 3.75.49 1.59 0 3.23-.26 1.65-.25 3.12-.69 1.46-.44 2.61-.99t1.76-1.14h.92l2.3 2.49q-2.52 2.15-6.12 3.26-3.6 1.11-7.94 1.11-3.79 0-6.7-.93-2.92-.92-4.91-2.56-1.99-1.63-3.02-3.83-1.02-2.2-1.02-4.74zm7.69 2.64h24q.05-.37.07-.79.02-.43.02-.92 0-2.08-.42-3.97-.43-1.89-1.25-3.51-.82-1.63-2.01-2.97-1.2-1.34-2.71-2.29 1.61.63 2.96 1.74 1.36 1.11 2.34 2.7.97 1.59 1.52 3.66.55 2.08.55 4.64 0 .19-.01.49-.01.29-.04.66-.02.36-.06.74l-.08.75h-23.08q.47.78 1.71 1.6 1.25.81 3.23 1.37-1.22 0-2.29-.29-1.06-.29-1.93-.8-.86-.52-1.51-1.24t-1.01-1.57zm-2.2-4.76h18.9q-.39-1.69-1.21-3.01-.82-1.31-2.02-2.2-1.19-.9-2.73-1.37-1.54-.48-3.37-.48-1.98 0-3.6.53-1.62.52-2.84 1.46-1.23.94-2.02 2.24-.79 1.29-1.11 2.83zm3.35-1.05h-1.13q.91-2 2.85-3.15t4.5-1.15q1.05 0 2.04.17t1.83.53q.84.35 1.48.86.63.52 1 1.18-1.39-.93-2.98-1.37-1.59-.44-3.42-.44-2.12 0-3.73.88-1.61.88-2.44 2.49zm-5.89 13.43q2.37 1.68 5.51 2.61 3.13.93 7.19.93 3.95 0 7.41-.91 3.45-.9 6.23-2.76l.66.71q-3.15 2.13-6.63 3-3.47.88-7.28.88-4.96 0-8.22-1.19-3.26-1.2-4.87-3.27z" opacity="1" fill="#000" class="undefined-text-1" data-fill-palette-color="secondary" id="text-1"/></svg></svg></svg></g></svg><svg height="224.646" width="224.646" transform="translate(85.437)"><svg/><svg height="224.646" width="224.646" id="icon-0"><path d="M0 112.323C0 50.289 50.289 0 112.323 0c62.034 0 112.323 50.289 112.323 112.323 0 62.034-50.289 112.323-112.323 112.323C50.289 224.646 0 174.357 0 112.323zm112.323 104.812c57.886 0 104.813-46.926 104.812-104.812 0-57.886-46.926-104.813-104.812-104.813C54.437 7.51 7.51 54.436 7.51 112.323c0 57.886 46.926 104.813 104.813 104.812z" data-fill-palette-color="accent" stroke="transparent"/><svg height="125.072" width="125.072" transform="translate(49.787 49.787)"><svg xmlns="http://www.w3.org/2000/svg" version="1.1" x="0" y="0" viewBox="0 0 100 100" xml:space="preserve" height="125.072" width="125.072" class="icon-s-0" data-fill-palette-color="accent" id="s-0"><path d="M93.689 21.051l-3.478-1.594 2.215-3.116c.722-1.024.446-1.816.296-2.106-.311-.6-.948-.939-1.752-.939l-.295.008-3.803.356.353-3.805c.084-.885-.21-1.409-.473-1.694-.604-.667-1.631-.709-2.559-.055l-3.112 2.219-1.598-3.478c-.546-1.187-1.405-1.313-1.752-1.313-.344 0-1.205.126-1.749 1.313l-1.596 3.473-3.117-2.215c-.929-.654-1.954-.604-2.557.055-.262.285-.556.813-.474 1.699l.358 3.805-3.809-.361-.296-.008c-.803 0-1.44.34-1.749.939-.153.29-.428 1.086.296 2.106l2.217 3.112-3.483 1.598c-1.179.549-1.307 1.409-1.307 1.749 0 .344.128 1.204 1.311 1.753l3.472 1.594-2.207 3.117c-.724 1.02-.451 1.812-.298 2.102.309.6.946.939 1.749.939.036 0 .263-.008.296-.012l3.805-.357-.354 3.809c-.082.885.214 1.414.474 1.699.603.663 1.626.713 2.56.055l3.112-2.223 1.598 3.477c.544 1.187 1.405 1.317 1.749 1.317.347 0 1.206-.13 1.75-1.317l1.596-3.469 3.116 2.206c.932.659 1.957.613 2.559-.046.263-.29.557-.818.475-1.699l-.361-3.805 3.81.353c.035.004.262.012.295.012.806 0 1.441-.339 1.752-.935.15-.294.426-1.083-.296-2.106l-2.211-3.117 3.474-1.598C94.87 24.004 95 23.144 95 22.8c-.002-.344-.13-1.208-1.311-1.749zm-5.44 3.565c-.409.134-.694.424-.749.847-.09.335.031.747.247 1.023l2.494 3.544-4.366-.411c-.359-.054-.76.113-1.012.365-.23.23-.329.688-.3 1.015l.389 4.312-3.591-2.55c-.26-.202-.678-.256-.998-.185a1.093 1.093 0 00-.814.738l-1.824 3.93-1.813-3.947c-.113-.327-.459-.608-.79-.717a1.103 1.103 0 00-.307-.046c-.276 0-.558.105-.77.281l-3.547 2.538.418-4.451c.044-.335-.124-.73-.365-.969-.235-.235-.698-.323-1.018-.306l-4.314.386 2.574-3.616c.199-.277.236-.713.141-1.041a1.113 1.113 0 00-.718-.742l-3.933-1.82 3.989-1.833c.349-.134.627-.516.705-.885.069-.314-.063-.701-.261-.96l-2.495-3.545 4.381.407c.325.063.7-.097.946-.311.266-.235.388-.713.354-1.065l-.391-4.316 3.53 2.504c.289.26.771.319 1.146.206.303-.092.596-.428.727-.709l1.824-3.93 1.82 3.959c.124.344.489.629.839.717.332.088.745-.038 1.018-.248l3.549-2.533-.418 4.45c-.044.361.013.633.287.877.261.327.697.47 1.096.39l4.318-.386-2.532 3.553c-.216.26-.278.688-.209 1.019.071.344.421.68.74.826l3.935 1.825-3.932 1.81zm-10.517-10.86c-4.985 0-9.043 4.056-9.043 9.043s4.058 9.048 9.043 9.048h.003c4.985-.004 9.043-4.064 9.043-9.048 0-4.986-4.057-9.043-9.046-9.043zm0 15.877a6.84 6.84 0 01-6.833-6.833c0-3.767 3.066-6.829 6.833-6.829 3.77 0 6.833 3.062 6.833 6.829a6.841 6.841 0 01-6.833 6.833zm4.461 29.517a1.92 1.92 0 00-.088-.448 1.945 1.945 0 00-.973-1.158 2.09 2.09 0 00-1.938.051 21.574 21.574 0 00-8.527-1.741c-5.944 0-11.705 2.454-15.81 6.736h-.002c0 .005-.005.005-.005.005a.938.938 0 00-.112.138v.005h-.003v.004h-.004a1.11 1.11 0 00.157 1.418 1.114 1.114 0 001.564-.038h.002c1.221-1.275 3.245-1.627 4.833-.793a4.098 4.098 0 012.122 4.413c-.092.479.141.965.577 1.191.438.23.969.143 1.309-.214 1.221-1.275 3.251-1.615 4.834-.802a4.1 4.1 0 012.131 4.313L63 90l-13.965.04c-.495-23.553-8.695-38.578-12.269-45.092-.103-.189-.187-.348-.281-.516 2.349.562 5.375 1.569 7.748 3.112 1.76.898 3.272 2.085 4.605 3.125 1.972 1.539 3.673 2.869 5.585 2.869.813 0 1.604-.247 2.226-.667 1.365-.658 2.034-1.904 1.835-3.414-.446-3.39-5.518-8.184-11.256-9.262-1.561-.491-3.268-.742-5.076-.742-1.208 0-2.441.126-3.62.323 2.032-1.443 4.522-2.923 7.066-3.771 2.116-.969 4.308-1.497 6.241-1.963 3.719-.897 7.228-1.741 7.549-5.407.258-1.154.042-2.207-.627-3.037-.984-1.229-2.829-1.879-5.34-1.879-4.237 0-9.063 1.808-12.19 4.526-2.376 1.606-4.262 3.804-5.709 6.04.393-1.074.86-2.152 1.437-3.138.807-1.803 1.911-3.372 2.886-4.756 1.917-2.727 3.729-5.302 1.808-7.911-.61-1.116-1.607-1.732-2.807-1.732-3.773 0-8.609 6.12-9.381 11.774-.776 2.97-.554 6.048.004 8.658-2.041-1.745-4.629-3.377-7.504-4.082-1.72-.65-3.704-.99-5.741-.99-4.27 0-8.054 1.472-9.201 3.578-.575 1.057-.512 2.227.109 3.167 1.088 2.303 3.203 2.571 4.7 2.571.975 0 2.047-.125 3.182-.26 1.342-.155 2.729-.319 4.207-.319.445 0 .896.017 1.475.055l.478-.009c.948 0 1.921.101 2.882.244-3.008.218-5.709.91-7.949 2.081C9.656 45.648 4.84 52.091 5.004 56.021c.069 1.694 1.042 2.932 2.532 3.348a4.976 4.976 0 001.974.428c2.51 0 4.364-2.06 6.512-4.442 1.332-1.477 2.839-3.146 4.79-4.623 1.9-1.783 4.344-3.242 6.548-4.329-1.64 2.135-3.138 4.815-3.698 7.71-1.543 4.819-.423 10.507 1.552 13.213 1.143 1.568 2.336 1.9 3.138 1.9h.002c.667 0 1.315-.227 1.802-.588 2.984-1.598 2.462-4.706 1.911-7.99-.279-1.67-.598-3.562-.55-5.659-.245-2.986.401-6.22 1.049-8.506.107.197.204.373.321.591C36.296 53.291 44.503 67.579 45 90H16c-1.223 0-2 .775-2 2 0 1.221.777 2 2 2h74c1.223 0 2-.779 2-2 0-1.225-.777-2-2-2l-24.497.04 8.721-16.791c1.229-1.213 3.196-1.548 4.755-.734a4.109 4.109 0 012.127 4.417 1.107 1.107 0 001.883.977c1.219-1.275 3.251-1.615 4.837-.802a4.062 4.062 0 012.177 4.065 1.106 1.106 0 002.191.31c1.529-8.779-2.475-17.655-10.001-22.332zM46.688 42.338c5.046.952 9.304 5.155 9.602 7.408.077.566-.095.889-.73 1.204-.392.256-.753.373-1.137.373-1.149 0-2.573-1.107-4.222-2.399-1.414-1.103-3.016-2.357-4.859-3.289-2.565-1.678-5.701-2.726-8.192-3.322 2.64-.671 6.348-.964 9.538.025zm-4.115-12.34c3.245-2.806 7.785-4.065 10.848-4.065 1.736 0 3.087.39 3.613 1.044.151.193.342.524.174 1.317-.192 2.123-2.151 2.697-5.887 3.595-2.03.491-4.333 1.044-6.533 2.055-3.458 1.149-7.013 3.482-9.505 5.508 1.239-2.931 3.532-6.908 7.29-9.454zm-10.941-1.044c.734-5.323 5.017-9.992 7.214-9.992.271 0 .585.071.942.7.971 1.326.292 2.555-1.753 5.458-1.032 1.464-2.2 3.125-3.039 5.017-1.426 2.433-2.397 5.684-2.913 8.36-.768-2.539-1.357-6.07-.451-9.543zm-10.887 9.735c-2.177-.164-4.232.071-5.986.277-1.07.126-2.079.244-2.926.244-1.737 0-2.32-.5-2.773-1.426-.313-.487-.224-.801-.092-1.036.648-1.195 3.539-2.424 7.257-2.424 1.772 0 3.488.289 5.088.885 3.349.827 6.141 3.012 8.001 4.887-2.466-.768-5.545-1.417-8.14-1.417l-.429.01zm-1.353 10.353c-2.03 1.522-3.616 3.28-5.015 4.833-1.867 2.072-3.343 3.708-4.868 3.708-.351 0-.709-.084-1.231-.294-.715-.205-1.032-.608-1.063-1.354-.113-2.714 3.989-8.507 9.792-10.705 2.53-1.317 5.571-1.98 9.04-1.98.95 0 1.837.05 2.634.13-2.89 1.194-6.607 3.141-9.289 5.662zm9.916 6.011c-.057 2.186.281 4.194.577 5.96.589 3.503.673 4.899-.898 5.755-.227.164-.44.248-.633.248-.4 0-.896-.365-1.353-.99-1.615-2.215-2.544-7.139-1.2-11.367.658-3.385 2.701-6.284 4.484-8.238-.673 2.558-1.212 5.817-.977 8.632zm59.537 20.092a6.308 6.308 0 00-2.901-.709c-.92 0-1.828.206-2.654.588a6.333 6.333 0 00-3.293-4.472c-1.718-.894-3.832-.923-5.554-.126a6.358 6.358 0 00-3.291-4.472c-1.716-.894-3.832-.918-5.556-.121a6.328 6.328 0 00-3.289-4.472 6.218 6.218 0 00-1.623-.579c5.457-3.196 12.452-3.599 18.282-.868.296.139.636.143.93.004a1.1 1.1 0 00.539.76c5.677 3.251 9.274 9.103 9.801 15.444a6.433 6.433 0 00-1.391-.977z" data-fill-palette-color="accent"/></svg></svg></svg></svg></svg></svg></svg></svg>